<svg id="svg" version="1.1" xmlns="http://www.w3.org/2000/svg" xmlns:xlink="http://www.w3.org/1999/xlink" width="400" height="400" viewBox="0, 0, 400,400"><g id="svgg"><path id="path0" d="M96.800 82.800 C 96.800 83.020,96.170 83.200,95.400 83.200 C 94.630 83.200,94.000 83.380,94.000 83.600 C 94.000 83.820,93.550 84.000,93.000 84.000 C 92.450 84.000,92.000 84.180,92.000 84.400 C 92.000 84.620,91.718 84.800,91.373 84.800 C 90.603 84.800,84.800 90.664,84.800 91.441 C 84.800 91.748,84.620 92.000,84.400 92.000 C 84.180 92.000,84.000 92.360,84.000 92.800 C 84.000 93.240,83.839 93.600,83.642 93.600 C 82.850 93.600,82.684 98.087,82.539 123.300 L 82.389 149.600 47.018 149.600 C 23.869 149.600,11.562 149.738,11.400 150.000 C 11.264 150.220,10.713 150.400,10.176 150.400 C 9.639 150.400,9.200 150.580,9.200 150.800 C 9.200 151.020,8.880 151.200,8.488 151.200 C 8.097 151.200,7.517 151.560,7.200 152.000 C 6.883 152.440,6.387 152.800,6.098 152.800 C 5.416 152.800,2.800 155.416,2.800 156.098 C 2.800 156.387,2.440 156.883,2.000 157.200 C 1.560 157.517,1.200 158.082,1.200 158.455 C 1.200 158.828,0.975 159.208,0.700 159.300 C -0.343 159.648,0.024 173.780,1.100 174.713 C 1.595 175.143,2.000 175.748,2.000 176.059 C 2.000 176.369,2.360 176.883,2.800 177.200 C 3.240 177.517,3.600 178.013,3.600 178.301 C 3.600 178.589,3.915 178.943,4.300 179.088 C 4.685 179.233,5.477 179.857,6.060 180.475 C 6.644 181.094,7.409 181.600,7.760 181.600 C 8.112 181.600,8.400 181.780,8.400 182.000 C 8.400 182.220,8.760 182.400,9.200 182.400 C 9.640 182.400,10.000 182.580,10.000 182.800 C 10.000 183.020,10.450 183.200,11.000 183.200 C 11.550 183.200,12.000 183.380,12.000 183.600 C 12.000 183.864,24.000 184.000,47.200 184.000 L 82.400 184.000 82.400 210.176 C 82.400 227.196,82.540 236.439,82.800 236.600 C 83.020 236.736,83.200 237.467,83.200 238.224 C 83.200 238.981,83.380 239.600,83.600 239.600 C 83.820 239.600,84.000 240.010,84.000 240.512 C 84.000 241.013,84.360 241.683,84.800 242.000 C 85.240 242.317,85.600 242.822,85.600 243.123 C 85.600 243.822,89.929 248.000,90.654 248.000 C 90.954 248.000,91.200 248.180,91.200 248.400 C 91.200 248.620,91.560 248.800,92.000 248.800 C 92.440 248.800,92.800 248.980,92.800 249.200 C 92.800 249.420,93.250 249.600,93.800 249.600 C 94.350 249.600,94.800 249.780,94.800 250.000 C 94.800 250.246,96.800 250.400,100.000 250.400 C 103.200 250.400,105.200 250.246,105.200 250.000 C 105.200 249.780,105.524 249.600,105.920 249.600 C 106.814 249.600,108.793 248.706,108.797 248.300 C 108.799 248.135,109.072 248.000,109.405 248.000 C 110.111 248.000,113.204 244.988,137.266 220.866 C 140.222 217.904,145.001 213.122,154.061 204.061 C 156.041 202.081,159.880 198.243,162.591 195.531 C 165.302 192.819,169.023 189.109,170.860 187.287 C 178.028 180.177,181.600 176.352,181.600 175.788 C 181.600 175.465,181.780 175.200,182.000 175.200 C 182.220 175.200,182.400 174.840,182.400 174.400 C 182.400 173.960,182.560 173.600,182.755 173.600 C 183.324 173.600,183.683 171.320,183.872 166.500 C 183.990 163.485,183.908 162.000,183.624 162.000 C 183.391 162.000,183.200 161.550,183.200 161.000 C 183.200 160.450,183.020 160.000,182.800 160.000 C 182.580 160.000,182.400 159.640,182.400 159.200 C 182.400 158.760,182.220 158.400,182.000 158.400 C 181.780 158.400,181.600 158.122,181.600 157.782 C 181.600 156.991,181.414 156.800,145.554 120.889 C 113.923 89.213,109.396 84.800,108.528 84.800 C 108.237 84.800,108.000 84.620,108.000 84.400 C 108.000 84.180,107.651 84.000,107.224 84.000 C 106.797 84.000,106.336 83.820,106.200 83.600 C 106.064 83.380,105.333 83.200,104.576 83.200 C 103.819 83.200,103.200 83.020,103.200 82.800 C 103.200 82.567,101.867 82.400,100.000 82.400 C 98.133 82.400,96.800 82.567,96.800 82.800 " stroke="none" fill="#637c8c" fill-rule="evenodd"></path><path id="path1" d="M363.034 0.346 C 362.879 0.596,362.088 0.796,361.276 0.791 C 360.081 0.784,344.443 5.534,341.400 6.828 C 340.960 7.015,330.970 10.344,319.200 14.226 C 307.430 18.108,297.440 21.436,297.000 21.622 C 296.560 21.807,294.940 22.352,293.400 22.832 C 291.860 23.312,290.240 23.849,289.800 24.026 C 289.360 24.203,288.280 24.564,287.400 24.829 C 286.520 25.094,285.440 25.458,285.000 25.638 C 284.560 25.819,277.448 28.199,269.196 30.927 C 252.202 36.547,251.141 36.989,246.800 40.260 C 242.467 43.525,239.023 47.866,236.533 53.200 C 235.388 55.652,235.053 56.730,234.025 61.277 C 233.729 62.582,233.600 106.855,233.600 206.590 C 233.600 333.719,233.532 350.051,233.000 350.255 C 232.274 350.534,232.076 370.800,232.800 370.800 C 233.020 370.800,233.200 371.790,233.200 373.000 C 233.200 374.210,233.380 375.200,233.600 375.200 C 233.820 375.200,234.000 375.740,234.000 376.400 C 234.000 377.060,234.180 377.600,234.400 377.600 C 234.620 377.600,234.800 378.039,234.800 378.576 C 234.800 379.113,234.980 379.664,235.200 379.800 C 235.420 379.936,235.600 380.397,235.600 380.824 C 235.600 381.251,235.780 381.600,236.000 381.600 C 236.220 381.600,236.400 381.960,236.400 382.400 C 236.400 382.840,236.580 383.200,236.800 383.200 C 237.020 383.200,237.200 383.478,237.200 383.817 C 237.200 384.156,237.560 384.820,238.000 385.292 C 238.440 385.764,238.800 386.398,238.800 386.699 C 238.800 387.001,238.980 387.136,239.200 387.000 C 239.420 386.864,239.600 386.898,239.600 387.076 C 239.602 387.999,245.501 394.000,246.407 394.000 C 246.623 394.000,246.800 394.180,246.800 394.400 C 246.800 394.620,246.988 394.800,247.217 394.800 C 247.446 394.800,248.020 395.160,248.492 395.600 C 248.964 396.040,249.587 396.400,249.875 396.400 C 250.164 396.400,250.400 396.580,250.400 396.800 C 250.400 397.020,250.760 397.200,251.200 397.200 C 251.640 397.200,252.000 397.380,252.000 397.600 C 252.000 397.820,252.439 398.000,252.976 398.000 C 253.513 398.000,254.064 398.180,254.200 398.400 C 254.336 398.620,254.782 398.800,255.190 398.800 C 255.599 398.800,256.008 399.025,256.100 399.300 C 256.323 399.971,275.804 400.020,277.239 399.354 C 278.982 398.544,280.177 398.098,282.000 397.576 C 282.990 397.293,283.971 396.912,284.180 396.730 C 284.389 396.549,285.053 396.400,285.656 396.400 C 286.259 396.400,286.864 396.220,287.000 396.000 C 287.136 395.780,287.687 395.600,288.224 395.600 C 288.761 395.600,289.200 395.420,289.200 395.200 C 289.200 394.980,289.751 394.800,290.424 394.800 C 291.137 394.800,291.544 394.633,291.400 394.400 C 291.253 394.162,291.729 394.000,292.576 394.000 C 293.359 394.000,294.000 393.820,294.000 393.600 C 294.000 393.380,294.540 393.200,295.200 393.200 C 295.860 393.200,296.400 393.020,296.400 392.800 C 296.400 392.580,296.940 392.400,297.600 392.400 C 298.260 392.400,298.800 392.220,298.800 392.000 C 298.800 391.780,299.133 391.600,299.540 391.600 C 300.355 391.600,308.587 388.991,309.695 388.382 C 310.077 388.172,310.831 388.000,311.371 388.000 C 311.911 388.000,312.464 387.820,312.600 387.600 C 312.736 387.380,313.276 387.200,313.800 387.200 C 314.324 387.200,314.864 387.020,315.000 386.800 C 315.136 386.580,315.676 386.400,316.200 386.400 C 316.724 386.400,317.264 386.220,317.400 386.000 C 317.536 385.780,318.087 385.600,318.624 385.600 C 319.161 385.600,319.600 385.420,319.600 385.200 C 319.600 384.980,320.140 384.800,320.800 384.800 C 321.460 384.800,322.000 384.620,322.000 384.400 C 322.000 384.180,322.525 384.000,323.167 384.000 C 323.808 384.000,324.393 383.822,324.467 383.603 C 324.540 383.385,325.095 383.166,325.700 383.116 C 326.305 383.066,326.800 382.885,326.800 382.713 C 326.800 382.541,327.149 382.400,327.576 382.400 C 328.003 382.400,328.464 382.220,328.600 382.000 C 328.736 381.780,329.276 381.600,329.800 381.600 C 330.324 381.600,330.864 381.420,331.000 381.200 C 331.136 380.980,331.766 380.800,332.400 380.800 C 333.034 380.800,333.664 380.620,333.800 380.400 C 333.936 380.180,334.476 380.000,335.000 380.000 C 335.524 380.000,336.064 379.820,336.200 379.600 C 336.336 379.380,336.872 379.200,337.390 379.200 C 337.909 379.200,338.393 379.022,338.467 378.803 C 338.540 378.585,339.082 378.367,339.671 378.319 C 340.260 378.270,340.655 378.088,340.548 377.915 C 340.440 377.742,340.993 377.600,341.776 377.600 C 342.559 377.600,343.200 377.420,343.200 377.200 C 343.200 376.980,343.740 376.800,344.400 376.800 C 345.060 376.800,345.600 376.620,345.600 376.400 C 345.600 376.180,346.140 376.000,346.800 376.000 C 347.460 376.000,348.000 375.820,348.000 375.600 C 348.000 375.380,348.375 375.200,348.833 375.200 C 349.713 375.200,355.315 373.432,356.495 372.783 C 356.877 372.572,357.464 372.400,357.800 372.400 C 358.136 372.400,358.723 372.238,359.105 372.041 C 359.487 371.844,361.150 371.285,362.800 370.800 C 364.450 370.315,366.113 369.756,366.495 369.559 C 366.877 369.362,367.541 369.200,367.971 369.200 C 368.401 369.200,368.864 369.020,369.000 368.800 C 369.136 368.580,369.672 368.400,370.190 368.400 C 370.709 368.400,371.193 368.222,371.267 368.003 C 371.340 367.785,371.895 367.566,372.500 367.516 C 373.105 367.466,373.600 367.285,373.600 367.113 C 373.600 366.941,374.140 366.800,374.800 366.800 C 375.460 366.800,376.000 366.620,376.000 366.400 C 376.000 366.180,376.540 366.000,377.200 366.000 C 377.860 366.000,378.400 365.820,378.400 365.600 C 378.400 365.380,378.760 365.200,379.200 365.200 C 379.640 365.200,380.000 365.020,380.000 364.800 C 380.000 364.580,380.360 364.400,380.800 364.400 C 381.240 364.400,381.600 364.220,381.600 364.000 C 381.600 363.780,381.960 363.600,382.400 363.600 C 382.840 363.600,383.200 363.420,383.200 363.200 C 383.200 362.980,383.520 362.800,383.912 362.800 C 384.303 362.800,384.883 362.440,385.200 362.000 C 385.517 361.560,386.015 361.200,386.306 361.200 C 386.598 361.200,387.260 360.795,387.779 360.300 C 388.297 359.805,389.546 358.630,390.554 357.689 C 391.562 356.747,392.811 355.353,393.329 354.591 C 393.847 353.828,394.390 353.323,394.535 353.469 C 394.681 353.614,394.800 353.426,394.800 353.050 C 394.800 352.674,395.160 351.980,395.600 351.508 C 396.040 351.036,396.400 350.413,396.400 350.125 C 396.400 349.836,396.580 349.600,396.800 349.600 C 397.020 349.600,397.200 349.240,397.200 348.800 C 397.200 348.360,397.341 348.000,397.513 348.000 C 397.685 348.000,398.071 347.145,398.371 346.100 C 398.671 345.055,399.115 343.947,399.358 343.639 C 400.041 342.771,399.983 23.823,399.300 23.140 C 399.025 22.865,398.800 22.226,398.800 21.720 C 398.800 21.214,398.620 20.800,398.400 20.800 C 398.180 20.800,398.000 20.547,398.000 20.238 C 398.000 19.572,396.332 16.259,395.900 16.067 C 395.735 15.993,395.600 15.628,395.600 15.255 C 395.600 14.882,395.240 14.317,394.800 14.000 C 394.360 13.683,394.000 13.193,394.000 12.912 C 394.000 12.630,393.820 12.400,393.600 12.400 C 393.380 12.400,393.200 12.213,393.200 11.984 C 393.200 11.452,390.100 8.400,389.560 8.400 C 389.336 8.400,389.247 8.247,389.363 8.060 C 389.478 7.873,389.129 7.483,388.586 7.193 C 388.044 6.902,387.600 6.515,387.600 6.332 C 387.600 6.150,387.412 6.000,387.183 6.000 C 386.954 6.000,386.380 5.640,385.908 5.200 C 385.436 4.760,384.813 4.400,384.525 4.400 C 384.236 4.400,384.000 4.220,384.000 4.000 C 384.000 3.780,383.766 3.600,383.480 3.600 C 382.744 3.600,380.807 2.659,380.803 2.300 C 380.801 2.135,380.451 2.000,380.024 2.000 C 379.597 2.000,379.136 1.820,379.000 1.600 C 378.864 1.380,378.328 1.200,377.810 1.200 C 377.291 1.200,376.799 0.996,376.716 0.747 C 376.501 0.102,363.421 -0.281,363.034 0.346 M128.600 104.000 C 130.350 105.760,131.871 107.200,131.981 107.200 C 132.091 107.200,130.750 105.760,129.000 104.000 C 127.250 102.240,125.729 100.800,125.619 100.800 C 125.509 100.800,126.850 102.240,128.600 104.000 M145.800 121.200 C 147.550 122.960,149.071 124.400,149.181 124.400 C 149.291 124.400,147.950 122.960,146.200 121.200 C 144.450 119.440,142.929 118.000,142.819 118.000 C 142.709 118.000,144.050 119.440,145.800 121.200 M162.200 137.600 C 163.950 139.360,165.471 140.800,165.581 140.800 C 165.691 140.800,164.350 139.360,162.600 137.600 C 160.850 135.840,159.329 134.400,159.219 134.400 C 159.109 134.400,160.450 135.840,162.200 137.600 " stroke="none" fill="#63b3f4" fill-rule="evenodd"></path><path id="path2" d="M172.800 0.293 C 172.030 0.383,171.229 0.624,171.020 0.829 C 170.811 1.033,170.136 1.200,169.520 1.200 C 168.904 1.200,168.400 1.380,168.400 1.600 C 168.400 1.820,167.781 2.000,167.024 2.000 C 166.267 2.000,165.536 2.180,165.400 2.400 C 165.264 2.620,164.803 2.800,164.376 2.800 C 163.949 2.800,163.600 2.941,163.600 3.113 C 163.600 3.285,162.790 3.665,161.800 3.957 C 160.810 4.249,160.000 4.648,160.000 4.844 C 160.000 5.040,159.752 5.200,159.449 5.200 C 159.146 5.200,158.684 5.458,158.422 5.774 C 157.727 6.611,154.930 7.992,154.575 7.673 C 154.408 7.523,154.401 7.625,154.559 7.900 C 154.729 8.194,154.627 8.400,154.312 8.400 C 154.017 8.400,153.524 8.750,153.215 9.179 C 152.907 9.607,152.507 9.866,152.327 9.755 C 152.147 9.644,152.000 9.722,152.000 9.928 C 152.000 10.134,151.454 10.529,150.787 10.805 C 150.120 11.082,149.667 11.401,149.781 11.514 C 149.997 11.730,148.715 12.988,147.257 13.988 C 146.786 14.312,146.400 14.730,146.400 14.917 C 146.400 15.104,146.130 15.527,145.800 15.857 C 145.470 16.187,145.200 16.329,145.200 16.173 C 145.200 16.016,144.740 16.567,144.177 17.396 C 143.615 18.225,142.911 19.146,142.615 19.443 C 142.318 19.739,141.834 20.526,141.540 21.191 C 141.246 21.856,140.869 22.400,140.702 22.400 C 140.536 22.400,140.400 22.720,140.400 23.112 C 140.400 23.503,140.040 24.083,139.600 24.400 C 139.160 24.717,138.800 25.297,138.800 25.688 C 138.800 26.080,138.654 26.400,138.475 26.400 C 138.296 26.400,137.902 27.030,137.600 27.800 C 137.298 28.570,136.904 29.200,136.725 29.200 C 136.546 29.200,136.400 29.740,136.400 30.400 C 136.400 31.060,136.220 31.600,136.000 31.600 C 135.780 31.600,135.600 32.140,135.600 32.800 C 135.600 33.460,135.420 34.000,135.200 34.000 C 134.980 34.000,134.800 34.540,134.800 35.200 C 134.800 35.860,134.620 36.400,134.400 36.400 C 134.180 36.400,134.000 37.120,134.000 38.000 C 134.000 38.880,133.820 39.600,133.600 39.600 C 133.375 39.600,133.200 40.725,133.200 42.176 C 133.200 43.593,133.032 44.856,132.828 44.983 C 132.618 45.113,132.442 49.088,132.424 54.106 L 132.393 63.000 134.160 64.908 C 135.283 66.120,136.003 66.631,136.132 66.308 C 136.254 66.006,136.350 66.095,136.368 66.529 C 136.405 67.364,137.382 68.484,137.752 68.114 C 137.889 67.978,138.000 68.177,138.000 68.557 C 138.000 68.937,138.180 69.136,138.400 69.000 C 138.620 68.864,138.800 69.044,138.800 69.400 C 138.800 69.756,138.980 69.936,139.200 69.800 C 139.420 69.664,139.608 69.788,139.619 70.076 C 139.629 70.364,140.334 71.140,141.185 71.800 C 142.036 72.460,142.821 73.315,142.929 73.700 C 143.038 74.089,143.508 74.400,143.986 74.400 C 144.460 74.400,144.760 74.541,144.653 74.714 C 144.400 75.124,146.565 77.600,147.176 77.600 C 147.435 77.600,147.536 77.780,147.400 78.000 C 147.264 78.220,147.463 78.400,147.843 78.400 C 148.223 78.400,148.422 78.511,148.286 78.648 C 147.909 79.024,149.047 79.999,149.871 80.006 C 150.309 80.010,150.427 80.130,150.167 80.306 C 149.890 80.494,150.206 81.064,151.039 81.884 C 151.872 82.703,152.415 82.992,152.541 82.684 C 152.649 82.418,152.751 82.616,152.768 83.124 C 152.786 83.632,152.980 83.936,153.200 83.800 C 153.420 83.664,153.600 83.844,153.600 84.200 C 153.600 84.556,153.780 84.736,154.000 84.600 C 154.220 84.464,154.400 84.644,154.400 85.000 C 154.400 85.356,154.580 85.536,154.800 85.400 C 155.020 85.264,155.200 85.444,155.200 85.800 C 155.200 86.156,155.380 86.336,155.600 86.200 C 155.820 86.064,156.000 86.165,156.000 86.424 C 156.000 86.914,158.375 89.182,158.900 89.194 C 159.065 89.197,159.200 89.487,159.200 89.837 C 159.200 90.188,159.560 90.569,160.000 90.684 C 160.440 90.799,160.803 91.007,160.806 91.147 C 160.819 91.638,163.112 94.000,163.576 94.000 C 163.835 94.000,163.936 94.180,163.800 94.400 C 163.664 94.620,163.844 94.800,164.200 94.800 C 164.556 94.800,164.736 94.980,164.600 95.200 C 164.464 95.420,164.644 95.600,165.000 95.600 C 165.356 95.600,165.536 95.780,165.400 96.000 C 165.264 96.220,165.444 96.400,165.800 96.400 C 166.156 96.400,166.336 96.580,166.200 96.800 C 166.063 97.022,166.364 97.203,166.876 97.206 C 167.398 97.210,167.611 97.340,167.367 97.506 C 167.090 97.694,167.406 98.264,168.239 99.084 C 169.072 99.903,169.615 100.192,169.741 99.884 C 169.849 99.618,169.951 99.728,169.968 100.129 C 170.005 100.964,170.982 102.084,171.352 101.714 C 171.489 101.578,171.600 101.777,171.600 102.157 C 171.600 102.537,171.780 102.736,172.000 102.600 C 172.220 102.464,172.400 102.565,172.400 102.824 C 172.400 103.435,174.876 105.600,175.286 105.347 C 175.459 105.240,175.600 105.529,175.600 105.989 C 175.600 106.449,175.915 106.943,176.300 107.087 C 177.042 107.364,179.183 109.593,179.194 110.100 C 179.197 110.265,179.481 110.400,179.824 110.400 C 180.167 110.400,180.336 110.580,180.200 110.800 C 180.064 111.020,180.244 111.200,180.600 111.200 C 180.956 111.200,181.136 111.380,181.000 111.600 C 180.864 111.820,181.063 112.000,181.443 112.000 C 181.823 112.000,182.022 112.111,181.886 112.248 C 181.516 112.618,182.636 113.595,183.471 113.632 C 183.872 113.649,183.982 113.751,183.716 113.859 C 183.408 113.985,183.697 114.528,184.516 115.361 C 185.336 116.194,185.906 116.510,186.094 116.233 C 186.270 115.973,186.390 116.091,186.394 116.529 C 186.401 117.353,187.376 118.491,187.752 118.114 C 187.889 117.978,188.000 118.177,188.000 118.557 C 188.000 118.937,188.180 119.136,188.400 119.000 C 188.620 118.864,188.800 119.044,188.800 119.400 C 188.800 119.756,188.980 119.936,189.200 119.800 C 189.420 119.664,189.608 119.788,189.619 120.076 C 189.629 120.364,190.334 121.140,191.185 121.800 C 192.036 122.460,192.821 123.315,192.929 123.700 C 193.038 124.089,193.508 124.400,193.986 124.400 C 194.460 124.400,194.760 124.541,194.653 124.714 C 194.400 125.124,196.565 127.600,197.176 127.600 C 197.435 127.600,197.536 127.780,197.400 128.000 C 197.264 128.220,197.463 128.400,197.843 128.400 C 198.223 128.400,198.422 128.511,198.286 128.648 C 197.916 129.018,199.036 129.995,199.871 130.032 C 200.272 130.049,200.389 130.149,200.132 130.254 C 199.854 130.368,200.341 131.139,201.332 132.154 C 202.249 133.094,203.135 133.793,203.300 133.708 C 203.465 133.622,203.600 133.717,203.600 133.917 C 203.600 134.117,204.099 134.803,204.708 135.441 C 205.317 136.078,205.864 136.780,205.923 137.000 C 205.982 137.220,206.383 137.806,206.815 138.303 C 207.247 138.800,207.600 139.383,207.600 139.600 C 207.600 139.816,207.942 140.207,208.360 140.468 C 208.778 140.729,209.029 141.179,208.919 141.468 C 208.808 141.757,209.005 142.104,209.356 142.239 C 209.708 142.373,209.909 142.623,209.804 142.793 C 209.580 143.155,210.675 145.475,211.232 145.820 C 211.442 145.949,211.509 146.224,211.381 146.431 C 211.253 146.637,211.432 147.089,211.778 147.435 C 212.124 147.781,212.317 148.211,212.206 148.390 C 212.095 148.570,212.260 148.814,212.571 148.934 C 212.917 149.066,213.054 149.472,212.922 149.976 C 212.800 150.445,212.899 150.800,213.153 150.800 C 213.399 150.800,213.600 151.172,213.600 151.626 C 213.600 152.081,213.762 152.756,213.960 153.126 C 214.158 153.497,214.373 154.430,214.439 155.200 C 214.505 155.970,214.697 156.792,214.867 157.026 C 215.036 157.260,215.208 158.475,215.249 159.726 C 215.290 160.977,215.476 162.000,215.662 162.000 C 215.848 162.000,216.000 164.160,216.000 166.800 C 216.000 169.440,215.835 171.600,215.634 171.600 C 215.433 171.600,215.189 172.725,215.093 174.100 C 214.996 175.475,214.780 177.140,214.612 177.800 C 214.444 178.460,214.298 179.225,214.287 179.500 C 214.276 179.775,214.117 180.000,213.933 180.000 C 213.750 180.000,213.600 180.540,213.600 181.200 C 213.600 181.860,213.453 182.400,213.272 182.400 C 213.092 182.400,212.700 183.300,212.400 184.400 C 212.100 185.500,211.697 186.400,211.504 186.400 C 211.311 186.400,211.248 186.553,211.364 186.741 C 211.480 186.929,211.316 187.424,211.000 187.841 C 210.684 188.258,210.420 188.915,210.413 189.300 C 210.406 189.685,210.209 190.000,209.976 190.000 C 209.743 190.000,209.644 190.148,209.756 190.329 C 209.868 190.509,209.608 190.958,209.180 191.325 C 208.751 191.692,208.400 192.311,208.400 192.700 C 208.400 193.089,208.040 193.632,207.600 193.907 C 207.160 194.182,206.800 194.675,206.800 195.003 C 206.800 195.332,206.620 195.600,206.400 195.600 C 206.180 195.600,206.000 195.900,206.000 196.267 C 206.000 196.633,205.889 196.822,205.752 196.686 C 205.440 196.374,204.400 197.387,204.400 198.003 C 204.400 198.256,203.680 199.154,202.800 200.000 C 201.920 200.846,201.200 201.761,201.200 202.035 C 201.200 202.309,201.103 202.437,200.985 202.318 C 200.793 202.126,192.592 210.101,189.960 213.039 C 189.388 213.678,188.189 214.828,187.296 215.595 C 186.402 216.363,185.755 217.128,185.859 217.295 C 185.962 217.463,185.848 217.600,185.606 217.600 C 185.363 217.600,184.017 218.770,182.615 220.200 C 181.213 221.630,180.132 222.800,180.215 222.800 C 180.297 222.800,179.914 223.250,179.364 223.800 C 178.814 224.350,178.228 224.800,178.063 224.800 C 177.696 224.800,174.800 227.728,174.800 228.099 C 174.800 228.244,174.350 228.814,173.800 229.364 C 173.250 229.914,172.800 230.297,172.800 230.215 C 172.800 230.132,171.630 231.213,170.200 232.615 C 168.770 234.017,167.600 235.363,167.600 235.606 C 167.600 235.848,167.463 235.962,167.295 235.859 C 167.128 235.755,166.363 236.402,165.595 237.296 C 164.828 238.189,163.678 239.388,163.039 239.960 C 160.101 242.592,152.126 250.793,152.318 250.985 C 152.437 251.103,152.233 251.200,151.867 251.200 C 151.500 251.200,151.200 251.500,151.200 251.867 C 151.200 252.233,151.103 252.437,150.985 252.318 C 150.793 252.126,142.592 260.101,139.960 263.039 C 139.388 263.678,138.189 264.828,137.296 265.595 C 136.402 266.363,135.755 267.128,135.859 267.295 C 135.962 267.463,135.756 267.600,135.400 267.600 C 135.044 267.600,134.864 267.780,135.000 268.000 C 135.136 268.220,134.967 268.400,134.624 268.400 C 134.281 268.400,134.000 268.580,134.000 268.800 C 134.000 269.020,133.749 269.200,133.443 269.200 C 133.136 269.200,132.773 269.494,132.635 269.854 C 132.240 270.883,132.391 304.507,132.793 304.991 C 132.990 305.229,133.192 306.543,133.241 307.912 C 133.291 309.280,133.482 310.400,133.666 310.400 C 133.850 310.400,134.000 311.120,134.000 312.000 C 134.000 312.880,134.180 313.600,134.400 313.600 C 134.620 313.600,134.800 314.140,134.800 314.800 C 134.800 315.460,134.980 316.000,135.200 316.000 C 135.420 316.000,135.600 316.540,135.600 317.200 C 135.600 317.860,135.780 318.400,136.000 318.400 C 136.220 318.400,136.400 318.940,136.400 319.600 C 136.400 320.260,136.546 320.800,136.725 320.800 C 136.904 320.800,137.298 321.430,137.600 322.200 C 137.902 322.970,138.296 323.600,138.475 323.600 C 138.654 323.600,138.800 323.920,138.800 324.312 C 138.800 324.703,139.160 325.283,139.600 325.600 C 140.040 325.917,140.400 326.497,140.400 326.888 C 140.400 327.280,140.559 327.600,140.753 327.600 C 140.948 327.600,141.212 327.915,141.342 328.300 C 141.636 329.176,142.454 330.453,143.065 330.991 C 143.321 331.216,143.905 332.030,144.364 332.800 C 144.822 333.570,145.198 334.052,145.199 333.871 C 145.199 333.691,145.470 333.813,145.800 334.143 C 146.130 334.473,146.400 334.870,146.400 335.025 C 146.400 335.492,148.083 336.800,148.685 336.800 C 148.994 336.800,149.135 336.981,148.998 337.203 C 148.861 337.424,149.030 337.713,149.372 337.845 C 149.715 337.976,149.907 338.227,149.798 338.403 C 149.690 338.578,150.096 338.896,150.700 339.109 C 151.305 339.322,152.510 340.150,153.378 340.948 C 154.246 341.747,155.236 342.400,155.578 342.401 C 155.920 342.401,156.830 342.941,157.600 343.600 C 158.370 344.259,159.225 344.799,159.500 344.799 C 159.775 344.800,160.000 344.950,160.000 345.133 C 160.000 345.317,160.270 345.497,160.600 345.533 C 160.930 345.570,161.470 345.630,161.800 345.667 C 162.130 345.703,162.400 345.883,162.400 346.067 C 162.400 346.250,162.670 346.400,163.000 346.400 C 163.330 346.400,163.600 346.580,163.600 346.800 C 163.600 347.020,163.872 347.200,164.205 347.200 C 164.538 347.200,165.123 347.358,165.505 347.551 C 166.661 348.135,169.004 348.800,169.905 348.800 C 170.371 348.800,170.864 348.980,171.000 349.200 C 171.136 349.420,171.867 349.600,172.624 349.600 C 173.381 349.600,174.000 349.774,174.000 349.988 C 174.000 350.235,184.603 350.343,203.300 350.288 L 232.600 350.200 232.800 206.000 L 233.000 61.800 233.950 58.400 C 237.941 44.111,244.878 38.204,265.600 31.447 C 271.430 29.546,276.513 27.813,276.895 27.596 C 277.277 27.378,277.941 27.200,278.371 27.200 C 278.801 27.200,279.264 27.020,279.400 26.800 C 279.536 26.580,280.076 26.400,280.600 26.400 C 281.124 26.400,281.664 26.220,281.800 26.000 C 281.936 25.780,282.476 25.600,283.000 25.600 C 283.524 25.600,284.064 25.420,284.200 25.200 C 284.336 24.980,284.876 24.800,285.400 24.800 C 285.924 24.800,286.464 24.620,286.600 24.400 C 286.736 24.180,287.276 24.000,287.800 24.000 C 288.324 24.000,288.864 23.820,289.000 23.600 C 289.136 23.380,289.676 23.200,290.200 23.200 C 290.724 23.200,291.264 23.020,291.400 22.800 C 291.536 22.580,292.076 22.400,292.600 22.400 C 293.124 22.400,293.664 22.220,293.800 22.000 C 293.936 21.780,294.476 21.600,295.000 21.600 C 295.524 21.600,296.064 21.420,296.200 21.200 C 296.336 20.980,296.799 20.800,297.229 20.800 C 297.659 20.800,298.323 20.626,298.705 20.414 C 299.087 20.202,303.630 18.653,308.800 16.974 C 325.604 11.514,327.790 10.783,328.495 10.389 C 328.877 10.175,329.541 10.000,329.971 10.000 C 330.401 10.000,330.864 9.820,331.000 9.600 C 331.136 9.380,331.676 9.200,332.200 9.200 C 332.724 9.200,333.264 9.020,333.400 8.800 C 333.536 8.580,334.076 8.400,334.600 8.400 C 335.124 8.400,335.664 8.220,335.800 8.000 C 335.936 7.780,336.476 7.600,337.000 7.600 C 337.524 7.600,338.064 7.420,338.200 7.200 C 338.336 6.980,338.876 6.800,339.400 6.800 C 339.924 6.800,340.464 6.620,340.600 6.400 C 340.736 6.180,341.276 6.000,341.800 6.000 C 342.324 6.000,342.864 5.820,343.000 5.600 C 343.136 5.380,343.676 5.200,344.200 5.200 C 344.724 5.200,345.264 5.020,345.400 4.800 C 345.536 4.580,346.076 4.400,346.600 4.400 C 347.124 4.400,347.664 4.220,347.800 4.000 C 347.936 3.780,348.399 3.600,348.829 3.600 C 349.259 3.600,349.923 3.429,350.305 3.219 C 351.345 2.649,355.482 1.300,358.200 0.645 C 360.476 0.096,177.429 -0.251,172.800 0.293 M176.800 152.200 C 177.546 152.970,178.247 153.600,178.357 153.600 C 178.467 153.600,177.946 152.970,177.200 152.200 C 176.454 151.430,175.753 150.800,175.643 150.800 C 175.533 150.800,176.054 151.430,176.800 152.200 " stroke="none" fill="#2494f4" fill-rule="evenodd"></path><path id="path3" d="M359.400 0.400 C 358.293 0.682,358.277 0.709,359.200 0.747 C 359.750 0.769,360.470 0.613,360.800 0.400 C 361.481 -0.040,361.129 -0.040,359.400 0.400 M353.720 1.936 C 350.676 2.948,348.457 4.015,351.046 3.222 C 354.638 2.121,358.119 0.864,357.600 0.855 C 357.270 0.850,355.524 1.336,353.720 1.936 M300.929 19.530 C 299.791 19.903,298.731 20.336,298.575 20.492 C 298.419 20.648,298.901 20.587,299.646 20.357 C 300.391 20.127,301.585 19.764,302.300 19.551 C 303.015 19.337,303.600 19.081,303.600 18.981 C 303.600 18.707,303.187 18.792,300.929 19.530 M254.533 35.122 C 253.616 35.495,252.716 35.950,252.533 36.133 C 252.350 36.317,253.190 36.077,254.400 35.600 C 255.610 35.123,256.675 34.658,256.767 34.567 C 257.107 34.227,256.151 34.465,254.533 35.122 M247.600 38.800 C 246.610 39.458,245.939 39.997,246.109 39.998 C 246.457 40.000,249.600 37.974,249.600 37.747 C 249.600 37.492,249.442 37.575,247.600 38.800 M242.386 43.500 L 240.200 45.800 242.500 43.614 C 244.637 41.582,244.983 41.200,244.686 41.200 C 244.624 41.200,243.589 42.235,242.386 43.500 M239.227 46.900 C 238.178 48.570,237.054 50.601,237.290 50.400 C 237.837 49.935,240.322 46.000,240.069 46.000 C 239.917 46.000,239.538 46.405,239.227 46.900 M235.396 53.872 C 235.058 54.681,234.833 55.500,234.897 55.691 C 234.961 55.882,235.316 55.220,235.687 54.219 C 236.493 52.045,236.270 51.779,235.396 53.872 M233.850 58.850 C 233.517 60.517,233.840 60.840,234.200 59.200 C 234.352 58.509,234.393 57.859,234.291 57.758 C 234.189 57.656,233.991 58.147,233.850 58.850 M233.309 62.800 C 233.309 63.790,233.387 64.195,233.482 63.700 C 233.578 63.205,233.578 62.395,233.482 61.900 C 233.387 61.405,233.309 61.810,233.309 62.800 M232.800 207.480 C 232.690 286.064,232.735 350.225,232.901 350.059 C 233.066 349.894,233.156 285.598,233.101 207.179 L 233.000 64.600 232.800 207.480 " stroke="none" fill="#34a4f4" fill-rule="evenodd"></path><path id="path4" d="M360.800 0.400 C 360.343 0.695,360.505 0.789,361.476 0.794 C 362.178 0.797,362.864 0.620,363.000 0.400 C 363.317 -0.113,361.593 -0.113,360.800 0.400 M357.400 1.200 C 356.896 1.417,356.822 1.544,357.200 1.544 C 357.530 1.544,358.160 1.389,358.600 1.200 C 359.104 0.983,359.178 0.856,358.800 0.856 C 358.470 0.856,357.840 1.011,357.400 1.200 M354.800 2.000 C 354.267 2.345,354.267 2.388,354.800 2.388 C 355.130 2.388,355.670 2.213,356.000 2.000 C 356.533 1.655,356.533 1.612,356.000 1.612 C 355.670 1.612,355.130 1.787,354.800 2.000 M352.400 2.800 C 351.867 3.145,351.867 3.188,352.400 3.188 C 352.730 3.188,353.270 3.013,353.600 2.800 C 354.133 2.455,354.133 2.412,353.600 2.412 C 353.270 2.412,352.730 2.587,352.400 2.800 M350.000 3.600 C 349.467 3.945,349.467 3.988,350.000 3.988 C 350.330 3.988,350.870 3.813,351.200 3.600 C 351.733 3.255,351.733 3.212,351.200 3.212 C 350.870 3.212,350.330 3.387,350.000 3.600 M345.000 5.200 C 343.240 5.826,342.038 6.351,342.329 6.369 C 342.874 6.401,348.857 4.476,349.163 4.171 C 349.586 3.748,347.944 4.154,345.000 5.200 M331.498 9.709 C 326.271 11.480,322.063 12.996,322.145 13.079 C 322.343 13.277,340.889 7.155,341.380 6.729 C 342.028 6.168,341.320 6.382,331.498 9.709 M310.400 16.800 C 309.867 17.145,309.867 17.188,310.400 17.188 C 310.730 17.188,311.270 17.013,311.600 16.800 C 312.133 16.455,312.133 16.412,311.600 16.412 C 311.270 16.412,310.730 16.587,310.400 16.800 M308.000 17.600 C 307.467 17.945,307.467 17.988,308.000 17.988 C 308.330 17.988,308.870 17.813,309.200 17.600 C 309.733 17.255,309.733 17.212,309.200 17.212 C 308.870 17.212,308.330 17.387,308.000 17.600 M305.600 18.400 C 305.067 18.745,305.067 18.788,305.600 18.788 C 305.930 18.788,306.470 18.613,306.800 18.400 C 307.333 18.055,307.333 18.012,306.800 18.012 C 306.470 18.012,305.930 18.187,305.600 18.400 M303.200 19.200 C 302.667 19.545,302.667 19.588,303.200 19.588 C 303.530 19.588,304.070 19.413,304.400 19.200 C 304.933 18.855,304.933 18.812,304.400 18.812 C 304.070 18.812,303.530 18.987,303.200 19.200 M300.800 20.000 C 300.267 20.345,300.267 20.388,300.800 20.388 C 301.130 20.388,301.670 20.213,302.000 20.000 C 302.533 19.655,302.533 19.612,302.000 19.612 C 301.670 19.612,301.130 19.787,300.800 20.000 M298.400 20.800 C 297.867 21.145,297.867 21.188,298.400 21.188 C 298.730 21.188,299.270 21.013,299.600 20.800 C 300.133 20.455,300.133 20.412,299.600 20.412 C 299.270 20.412,298.730 20.587,298.400 20.800 M293.400 22.400 C 291.640 23.026,290.470 23.547,290.800 23.558 C 291.510 23.583,296.670 21.863,297.062 21.471 C 297.517 21.016,296.737 21.214,293.400 22.400 M287.400 24.418 C 286.300 24.830,285.670 25.172,286.000 25.177 C 286.720 25.190,289.473 24.261,289.859 23.874 C 290.286 23.447,289.573 23.605,287.400 24.418 M278.696 27.306 C 275.449 28.417,272.860 29.393,272.942 29.476 C 273.141 29.674,284.491 25.954,284.980 25.530 C 285.609 24.984,284.898 25.185,278.696 27.306 M258.800 34.000 C 258.267 34.345,258.267 34.388,258.800 34.388 C 259.130 34.388,259.670 34.213,260.000 34.000 C 260.533 33.655,260.533 33.612,260.000 33.612 C 259.670 33.612,259.130 33.787,258.800 34.000 M250.300 37.429 C 249.695 37.757,249.200 38.110,249.200 38.213 C 249.200 38.599,249.832 38.357,250.800 37.600 C 251.989 36.670,251.811 36.609,250.300 37.429 M246.800 39.743 C 242.828 42.663,235.160 52.494,236.113 53.446 C 236.233 53.567,236.651 52.975,237.042 52.132 C 238.998 47.909,242.955 43.196,247.628 39.521 C 249.571 37.994,248.956 38.158,246.800 39.743 M234.629 57.029 C 234.481 57.615,234.438 58.172,234.532 58.266 C 234.627 58.360,234.824 57.958,234.971 57.371 C 235.119 56.785,235.162 56.228,235.068 56.134 C 234.973 56.040,234.776 56.442,234.629 57.029 M233.778 60.578 C 233.627 61.381,233.594 62.127,233.704 62.237 C 233.814 62.347,234.027 61.781,234.178 60.978 C 234.328 60.175,234.362 59.428,234.252 59.318 C 234.142 59.208,233.928 59.775,233.778 60.578 M233.200 207.280 C 233.090 285.974,233.135 350.225,233.301 350.059 C 233.466 349.894,233.556 285.508,233.501 206.979 L 233.400 64.200 233.200 207.280 " stroke="none" fill="#44a4f4" fill-rule="evenodd"></path></g></svg>