<svg width="20" height="25" viewBox="0 0 20 25" fill="none" xmlns="http://www.w3.org/2000/svg">
<path d="M4.16669 5.46875C3.82151 5.46875 3.54169 5.81853 3.54169 6.25C3.54169 6.68147 3.82151 7.03125 4.16669 7.03125H15.8334C16.1785 7.03125 16.4584 6.68147 16.4584 6.25C16.4584 5.81853 16.1785 5.46875 15.8334 5.46875H4.16669Z" fill="#2D264B"/>
<path d="M4.16669 11.7188C3.82151 11.7188 3.54169 12.0685 3.54169 12.5C3.54169 12.9315 3.82151 13.2812 4.16669 13.2812H15.8334C16.1785 13.2812 16.4584 12.9315 16.4584 12.5C16.4584 12.0685 16.1785 11.7188 15.8334 11.7188H4.16669Z" fill="#2D264B"/>
<path d="M4.16669 17.9688C3.82151 17.9688 3.54169 18.3185 3.54169 18.75C3.54169 19.1815 3.82151 19.5312 4.16669 19.5312H15.8334C16.1785 19.5312 16.4584 19.1815 16.4584 18.75C16.4584 18.3185 16.1785 17.9688 15.8334 17.9688H4.16669Z" fill="#2D264B"/>
</svg>
